<svg xmlns="http://www.w3.org/2000/svg" xmlns:v="https://svgstorm.com"
viewBox = "0 0 512 512"
width="512"
height="512">
<g fill="None" fill-opacity="0.0" stroke="#000000" stroke-opacity="0.00" stroke-width="0.3"><path d="
M 0.00 512.00 
L 512.00 512.00
L 512.00 0.00
L 0.00 0.00
L 0.00 512.00
M 332.00 148.00 
C 338.27 137.74 339.10 128.93 346.92 118.92 C 354.75 108.91 354.43 97.32 352.00 85.00 C 349.57 72.68 355.11 59.22 359.92 48.92 C 364.74 38.63 371.59 31.68 380.25 24.25 C 388.90 16.81 398.74 13.04 410.01 10.01 C 421.28 6.98 439.07 7.10 450.22 10.78 C 461.37 14.46 469.92 18.31 478.75 26.25 C 487.58 34.18 492.37 41.84 497.77 52.23 C 503.17 62.62 504.68 77.86 504.00 90.00 C 503.32 102.14 499.55 114.28 493.23 124.23 C 486.91 134.18 481.59 140.10 471.77 146.77 C 461.95 153.44 452.09 157.72 439.78 159.78 C 427.46 161.84 411.29 158.78 399.33 156.67 C 387.37 154.57 382.28 141.63 370.78 141.78 C 359.28 141.92 343.99 147.97 332.00 148.00
M 483.00 300.00 
C 486.84 307.44 496.05 309.75 498.92 319.08 C 501.80 328.40 505.46 339.33 504.00 350.00 C 502.54 360.67 502.96 372.91 501.00 383.00 C 499.04 393.09 496.96 402.86 494.07 412.07 C 491.19 421.29 488.15 428.59 483.70 436.70 C 479.24 444.80 474.85 450.80 468.75 457.75 C 462.64 464.69 456.41 468.62 448.77 473.77 C 441.13 478.92 433.15 481.83 423.98 484.98 C 414.80 488.12 405.55 489.93 395.00 491.00 C 384.45 492.07 371.46 492.17 360.00 492.00 C 348.54 491.83 335.74 492.08 324.00 492.00 C 312.27 491.92 299.83 492.03 288.00 492.00 C 276.17 491.97 263.81 492.01 252.00 492.00 C 240.19 491.99 228.77 492.00 217.00 492.00 C 205.23 492.00 192.68 492.00 181.00 492.00 C 169.32 492.01 156.37 491.98 145.00 492.00 C 133.63 492.02 119.65 491.96 109.00 492.00 C 98.35 492.04 83.05 491.91 74.00 492.00 C 64.95 492.09 49.37 488.43 52.00 478.00 C 54.63 467.57 68.44 468.72 78.00 468.00 C 87.56 467.28 103.20 468.33 114.00 468.00 C 124.80 467.67 137.58 468.15 149.00 468.00 C 160.42 467.85 173.28 468.08 185.00 468.00 C 196.72 467.92 209.17 468.06 221.00 468.00 C 232.83 467.94 245.17 468.07 257.00 468.00 C 268.83 467.93 281.28 468.14 293.00 468.00 C 304.72 467.86 316.49 468.31 328.00 468.00 C 339.51 467.69 352.89 468.66 364.00 468.00 C 375.11 467.34 387.72 467.45 398.00 466.00 C 408.29 464.55 417.07 461.52 426.02 458.02 C 434.98 454.53 440.46 450.55 447.75 444.75 C 455.04 438.94 458.99 432.88 464.25 425.25 C 469.52 417.63 471.57 409.03 474.99 399.99 C 478.41 390.95 479.01 380.08 481.00 370.00 C 482.99 359.92 482.17 346.96 482.00 337.00
C 480.15 348.62 475.55 360.46 469.70 370.70 C 463.84 380.93 457.64 388.78 448.92 396.92 C 440.20 405.05 432.60 410.85 421.77 416.77 C 410.94 422.69 400.17 426.08 387.33 429.33 C 374.48 432.57 357.56 431.91 343.00 432.00 C 328.44 432.09 310.85 431.46 296.00 432.00 C 281.15 432.54 273.99 414.33 289.07 410.07 C 304.16 405.82 317.15 408.10 332.00 406.00
C 322.37 397.44 314.27 391.12 301.00 392.00 C 287.73 392.88 273.34 387.74 260.93 386.07 C 248.51 384.40 237.06 379.16 225.92 375.08 C 214.78 370.99 207.78 383.29 197.30 387.30 C 186.83 391.32 175.29 397.66 164.32 400.32 C 153.35 402.98 136.78 407.86 126.00 408.00 C 115.22 408.14 96.37 411.46 92.08 398.92 C 87.79 386.38 109.58 381.21 119.07 380.07 C 128.57 378.93 143.61 374.28 149.77 364.77 C 155.93 355.26 165.18 347.73 167.00 336.00
C 142.05 320.79 128.17 287.42 98.00 284.00 C 67.83 280.58 29.79 273.13 17.00 243.00
C 0.52 237.21 7.36 211.50 24.00 212.00
C 55.99 168.78 111.19 148.67 164.00 148.00
C 161.74 120.29 197.90 106.03 217.70 123.30 C 237.49 140.58 227.25 176.62 201.00 180.00
C 214.08 214.53 253.35 200.26 280.02 190.02 C 306.69 179.79 348.73 171.10 378.00 178.00 C 407.27 184.89 429.29 196.95 449.25 219.75 C 469.20 242.55 479.03 270.74 483.00 300.00 Z"/>
</g>
<g fill="None" fill-opacity="0.0" stroke="#DF5B62" stroke-opacity="0.98" stroke-width="0.3"><path d="
M 332.00 148.00 
C 343.99 147.97 359.28 141.92 370.78 141.78 C 382.28 141.63 387.37 154.57 399.33 156.67 C 411.29 158.78 427.46 161.84 439.78 159.78 C 452.09 157.72 461.95 153.44 471.77 146.77 C 481.59 140.10 486.91 134.18 493.23 124.23 C 499.55 114.28 503.32 102.14 504.00 90.00 C 504.68 77.86 503.17 62.62 497.77 52.23 C 492.37 41.84 487.58 34.18 478.75 26.25 C 469.92 18.31 461.37 14.46 450.22 10.78 C 439.07 7.10 421.28 6.98 410.01 10.01 C 398.74 13.04 388.90 16.81 380.25 24.25 C 371.59 31.68 364.74 38.63 359.92 48.92 C 355.11 59.22 349.57 72.68 352.00 85.00 C 354.43 97.32 354.75 108.91 346.92 118.92 C 339.10 128.93 338.27 137.74 332.00 148.00
M 436.00 53.00 
C 447.77 63.83 450.00 40.64 462.00 44.00 C 474.00 47.36 464.21 64.46 456.00 68.00
C 456.13 70.95 458.88 73.02 459.00 76.00
C 466.20 76.41 479.99 73.10 479.99 84.01 C 479.99 94.91 466.19 91.57 459.00 92.00
C 458.87 94.95 456.12 97.03 456.00 100.00
C 461.65 104.57 472.98 114.45 465.75 121.75 C 458.52 129.05 448.50 117.57 444.00 112.00
C 441.05 112.13 438.97 114.88 436.00 115.00
C 435.59 122.20 438.90 135.99 427.99 135.99 C 417.09 135.99 420.43 122.19 420.00 115.00
C 417.05 114.87 414.98 112.12 412.00 112.00
C 408.49 119.25 392.25 130.40 388.08 118.92 C 383.91 107.43 407.90 103.15 397.00 92.00
C 389.80 91.59 376.00 94.90 376.01 83.99 C 376.01 73.09 389.81 76.43 397.00 76.00
C 407.88 64.38 384.57 61.81 388.00 50.00 C 391.43 38.19 408.50 47.86 412.00 56.00
C 414.95 55.87 417.03 53.12 420.00 53.00
C 420.41 45.80 417.10 32.01 428.01 32.01 C 438.91 32.01 435.57 45.81 436.00 53.00 Z"/>
</g>
<g fill="None" fill-opacity="0.0" stroke="#FCA64F" stroke-opacity="1.00" stroke-width="0.3"><path d="
M 436.00 53.00 
C 435.57 45.81 438.91 32.01 428.01 32.01 C 417.10 32.01 420.41 45.80 420.00 53.00
C 417.03 53.12 414.95 55.87 412.00 56.00
C 408.50 47.86 391.43 38.19 388.00 50.00 C 384.57 61.81 407.88 64.38 397.00 76.00
C 389.81 76.43 376.01 73.09 376.01 83.99 C 376.00 94.90 389.80 91.59 397.00 92.00
C 407.90 103.15 383.91 107.43 388.08 118.92 C 392.25 130.40 408.49 119.25 412.00 112.00
C 414.98 112.12 417.05 114.87 420.00 115.00
C 420.43 122.19 417.09 135.99 427.99 135.99 C 438.90 135.99 435.59 122.20 436.00 115.00
C 438.97 114.88 441.05 112.13 444.00 112.00
C 448.50 117.57 458.52 129.05 465.75 121.75 C 472.98 114.45 461.65 104.57 456.00 100.00
C 456.12 97.03 458.87 94.95 459.00 92.00
C 466.19 91.57 479.99 94.91 479.99 84.01 C 479.99 73.10 466.20 76.41 459.00 76.00
C 458.88 73.02 456.13 70.95 456.00 68.00
C 464.21 64.46 474.00 47.36 462.00 44.00 C 450.00 40.64 447.77 63.83 436.00 53.00 Z"/>
</g>
<g fill="None" fill-opacity="0.0" stroke="#56585B" stroke-opacity="0.99" stroke-width="0.3"><path d="
M 24.00 212.00 
C 48.79 212.74 41.31 251.53 17.00 243.00
C 29.79 273.13 67.83 280.58 98.00 284.00 C 128.17 287.42 142.05 320.79 167.00 336.00
C 165.18 347.73 155.93 355.26 149.77 364.77 C 143.61 374.28 128.57 378.93 119.07 380.07 C 109.58 381.21 87.79 386.38 92.08 398.92 C 96.37 411.46 115.22 408.14 126.00 408.00 C 136.78 407.86 153.35 402.98 164.32 400.32 C 175.29 397.66 186.83 391.32 197.30 387.30 C 207.78 383.29 214.78 370.99 225.92 375.08 C 237.06 379.16 248.51 384.40 260.93 386.07 C 273.34 387.74 287.73 392.88 301.00 392.00 C 314.27 391.12 322.37 397.44 332.00 406.00
C 317.15 408.10 304.16 405.82 289.07 410.07 C 273.99 414.33 281.15 432.54 296.00 432.00 C 310.85 431.46 328.44 432.09 343.00 432.00 C 357.56 431.91 374.48 432.57 387.33 429.33 C 400.17 426.08 410.94 422.69 421.77 416.77 C 432.60 410.85 440.20 405.05 448.92 396.92 C 457.64 388.78 463.84 380.93 469.70 370.70 C 475.55 360.46 480.15 348.62 482.00 337.00
C 483.98 324.58 483.69 312.76 483.00 300.00
C 479.03 270.74 469.20 242.55 449.25 219.75 C 429.29 196.95 407.27 184.89 378.00 178.00 C 348.73 171.10 306.69 179.79 280.02 190.02 C 253.35 200.26 214.08 214.53 201.00 180.00
C 227.25 176.62 237.49 140.58 217.70 123.30 C 197.90 106.03 161.74 120.29 164.00 148.00
C 111.19 148.67 55.99 168.78 24.00 212.00
M 200.00 132.00 
C 219.68 136.08 212.51 168.91 192.33 163.67 C 172.15 158.43 179.53 127.76 200.00 132.00
M 108.00 180.00 
C 132.76 184.02 125.91 224.90 100.33 219.67 C 74.75 214.44 82.21 175.81 108.00 180.00 Z"/>
</g>
<g fill="None" fill-opacity="0.0" stroke="#EC8573" stroke-opacity="1.00" stroke-width="0.3"><path d="
M 200.00 132.00 
C 179.53 127.76 172.15 158.43 192.33 163.67 C 212.51 168.91 219.68 136.08 200.00 132.00 Z"/>
</g>
<g fill="None" fill-opacity="0.0" stroke="#414042" stroke-opacity="1.00" stroke-width="0.3"><path d="
M 108.00 180.00 
C 82.21 175.81 74.75 214.44 100.33 219.67 C 125.91 224.90 132.76 184.02 108.00 180.00
M 102.00 200.00 
C 106.33 201.86 103.10 210.10 98.33 207.67 C 93.55 205.24 97.28 197.97 102.00 200.00 Z"/>
</g>
<g fill="None" fill-opacity="0.0" stroke="#DFE0E0" stroke-opacity="1.00" stroke-width="0.3"><path d="
M 102.00 200.00 
C 97.28 197.97 93.55 205.24 98.33 207.67 C 103.10 210.10 106.33 201.86 102.00 200.00 Z"/>
</g>
<g fill="None" fill-opacity="0.0" stroke="#EE8573" stroke-opacity="0.97" stroke-width="0.3"><path d="
M 17.00 243.00 
C 41.31 251.53 48.79 212.74 24.00 212.00
C 7.36 211.50 0.52 237.21 17.00 243.00 Z"/>
</g>
<g fill="None" fill-opacity="0.0" stroke="#EF8673" stroke-opacity="0.98" stroke-width="0.3"><path d="
M 482.00 337.00 
C 482.17 346.96 482.99 359.92 481.00 370.00 C 479.01 380.08 478.41 390.95 474.99 399.99 C 471.57 409.03 469.52 417.63 464.25 425.25 C 458.99 432.88 455.04 438.94 447.75 444.75 C 440.46 450.55 434.98 454.53 426.02 458.02 C 417.07 461.52 408.29 464.55 398.00 466.00 C 387.72 467.45 375.11 467.34 364.00 468.00 C 352.89 468.66 339.51 467.69 328.00 468.00 C 316.49 468.31 304.72 467.86 293.00 468.00 C 281.28 468.14 268.83 467.93 257.00 468.00 C 245.17 468.07 232.83 467.94 221.00 468.00 C 209.17 468.06 196.72 467.92 185.00 468.00 C 173.28 468.08 160.42 467.85 149.00 468.00 C 137.58 468.15 124.80 467.67 114.00 468.00 C 103.20 468.33 87.56 467.28 78.00 468.00 C 68.44 468.72 54.63 467.57 52.00 478.00 C 49.37 488.43 64.95 492.09 74.00 492.00 C 83.05 491.91 98.35 492.04 109.00 492.00 C 119.65 491.96 133.63 492.02 145.00 492.00 C 156.37 491.98 169.32 492.01 181.00 492.00 C 192.68 492.00 205.23 492.00 217.00 492.00 C 228.77 492.00 240.19 491.99 252.00 492.00 C 263.81 492.01 276.17 491.97 288.00 492.00 C 299.83 492.03 312.27 491.92 324.00 492.00 C 335.74 492.08 348.54 491.83 360.00 492.00 C 371.46 492.17 384.45 492.07 395.00 491.00 C 405.55 489.93 414.80 488.12 423.98 484.98 C 433.15 481.83 441.13 478.92 448.77 473.77 C 456.41 468.62 462.64 464.69 468.75 457.75 C 474.85 450.80 479.24 444.80 483.70 436.70 C 488.15 428.59 491.19 421.29 494.07 412.07 C 496.96 402.86 499.04 393.09 501.00 383.00 C 502.96 372.91 502.54 360.67 504.00 350.00 C 505.46 339.33 501.80 328.40 498.92 319.08 C 496.05 309.75 486.84 307.44 483.00 300.00
C 483.69 312.76 483.98 324.58 482.00 337.00 Z"/>
</g>
<g fill="#000000" fill-opacity="0.00" stroke="None">
<path d="
M 0.00 512.00 
L 512.00 512.00
L 512.00 0.00
L 0.00 0.00
L 0.00 512.00
M 332.00 148.00 
C 338.27 137.74 339.10 128.93 346.92 118.92 C 354.75 108.91 354.43 97.32 352.00 85.00 C 349.57 72.68 355.11 59.22 359.92 48.92 C 364.74 38.63 371.59 31.68 380.25 24.25 C 388.90 16.81 398.74 13.04 410.01 10.01 C 421.28 6.98 439.07 7.10 450.22 10.78 C 461.37 14.46 469.92 18.31 478.75 26.25 C 487.58 34.18 492.37 41.84 497.77 52.23 C 503.17 62.62 504.68 77.86 504.00 90.00 C 503.32 102.14 499.55 114.28 493.23 124.23 C 486.91 134.18 481.59 140.10 471.77 146.77 C 461.95 153.44 452.09 157.72 439.78 159.78 C 427.46 161.84 411.29 158.78 399.33 156.67 C 387.37 154.57 382.28 141.63 370.78 141.78 C 359.28 141.92 343.99 147.97 332.00 148.00
M 483.00 300.00 
C 486.84 307.44 496.05 309.75 498.92 319.08 C 501.80 328.40 505.46 339.33 504.00 350.00 C 502.54 360.67 502.96 372.91 501.00 383.00 C 499.04 393.09 496.96 402.86 494.07 412.07 C 491.19 421.29 488.15 428.59 483.70 436.70 C 479.24 444.80 474.85 450.80 468.75 457.75 C 462.64 464.69 456.41 468.62 448.77 473.77 C 441.13 478.92 433.15 481.83 423.98 484.98 C 414.80 488.12 405.55 489.93 395.00 491.00 C 384.45 492.07 371.46 492.17 360.00 492.00 C 348.54 491.83 335.74 492.08 324.00 492.00 C 312.27 491.92 299.83 492.03 288.00 492.00 C 276.17 491.97 263.81 492.01 252.00 492.00 C 240.19 491.99 228.77 492.00 217.00 492.00 C 205.23 492.00 192.68 492.00 181.00 492.00 C 169.32 492.01 156.37 491.98 145.00 492.00 C 133.63 492.02 119.65 491.96 109.00 492.00 C 98.35 492.04 83.05 491.91 74.00 492.00 C 64.95 492.09 49.37 488.43 52.00 478.00 C 54.63 467.57 68.44 468.72 78.00 468.00 C 87.56 467.28 103.20 468.33 114.00 468.00 C 124.80 467.67 137.58 468.15 149.00 468.00 C 160.42 467.85 173.28 468.08 185.00 468.00 C 196.72 467.92 209.17 468.06 221.00 468.00 C 232.83 467.94 245.17 468.07 257.00 468.00 C 268.83 467.93 281.28 468.14 293.00 468.00 C 304.72 467.86 316.49 468.31 328.00 468.00 C 339.51 467.69 352.89 468.66 364.00 468.00 C 375.11 467.34 387.72 467.45 398.00 466.00 C 408.29 464.55 417.07 461.52 426.02 458.02 C 434.98 454.53 440.46 450.55 447.75 444.75 C 455.04 438.94 458.99 432.88 464.25 425.25 C 469.52 417.63 471.57 409.03 474.99 399.99 C 478.41 390.95 479.01 380.08 481.00 370.00 C 482.99 359.92 482.17 346.96 482.00 337.00
C 480.15 348.62 475.55 360.46 469.70 370.70 C 463.84 380.93 457.64 388.78 448.92 396.92 C 440.20 405.05 432.60 410.85 421.77 416.77 C 410.94 422.69 400.17 426.08 387.33 429.33 C 374.48 432.57 357.56 431.91 343.00 432.00 C 328.44 432.09 310.85 431.46 296.00 432.00 C 281.15 432.54 273.99 414.33 289.07 410.07 C 304.16 405.82 317.15 408.10 332.00 406.00
C 322.37 397.44 314.27 391.12 301.00 392.00 C 287.73 392.88 273.34 387.74 260.93 386.07 C 248.51 384.40 237.06 379.16 225.92 375.08 C 214.78 370.99 207.78 383.29 197.30 387.30 C 186.83 391.32 175.29 397.66 164.32 400.32 C 153.35 402.98 136.78 407.86 126.00 408.00 C 115.22 408.14 96.37 411.46 92.08 398.92 C 87.79 386.38 109.58 381.21 119.07 380.07 C 128.57 378.93 143.61 374.28 149.77 364.77 C 155.93 355.26 165.18 347.73 167.00 336.00
C 142.05 320.79 128.17 287.42 98.00 284.00 C 67.83 280.58 29.79 273.13 17.00 243.00
C 0.52 237.21 7.36 211.50 24.00 212.00
C 55.99 168.78 111.19 148.67 164.00 148.00
C 161.74 120.29 197.90 106.03 217.70 123.30 C 237.49 140.58 227.25 176.62 201.00 180.00
C 214.08 214.53 253.35 200.26 280.02 190.02 C 306.69 179.79 348.73 171.10 378.00 178.00 C 407.27 184.89 429.29 196.95 449.25 219.75 C 469.20 242.55 479.03 270.74 483.00 300.00 Z"/>
</g>
<g fill="#DF5B62" fill-opacity="0.98" stroke="None">
<path d="
M 332.00 148.00 
C 343.99 147.97 359.28 141.92 370.78 141.78 C 382.28 141.63 387.37 154.57 399.33 156.67 C 411.29 158.78 427.46 161.84 439.78 159.78 C 452.09 157.72 461.95 153.44 471.77 146.77 C 481.59 140.10 486.91 134.18 493.23 124.23 C 499.55 114.28 503.32 102.14 504.00 90.00 C 504.68 77.86 503.17 62.62 497.77 52.23 C 492.37 41.84 487.58 34.18 478.75 26.25 C 469.92 18.31 461.37 14.46 450.22 10.78 C 439.07 7.10 421.28 6.98 410.01 10.01 C 398.74 13.04 388.90 16.81 380.25 24.25 C 371.59 31.68 364.74 38.63 359.92 48.92 C 355.11 59.22 349.57 72.68 352.00 85.00 C 354.43 97.32 354.75 108.91 346.92 118.92 C 339.10 128.93 338.27 137.74 332.00 148.00
M 436.00 53.00 
C 447.77 63.83 450.00 40.64 462.00 44.00 C 474.00 47.36 464.21 64.46 456.00 68.00
C 456.13 70.95 458.88 73.02 459.00 76.00
C 466.20 76.41 479.99 73.10 479.99 84.01 C 479.99 94.91 466.19 91.57 459.00 92.00
C 458.87 94.95 456.12 97.03 456.00 100.00
C 461.65 104.57 472.98 114.45 465.75 121.75 C 458.52 129.05 448.50 117.57 444.00 112.00
C 441.05 112.13 438.97 114.88 436.00 115.00
C 435.59 122.20 438.90 135.99 427.99 135.99 C 417.09 135.99 420.43 122.19 420.00 115.00
C 417.05 114.87 414.98 112.12 412.00 112.00
C 408.49 119.25 392.25 130.40 388.08 118.92 C 383.91 107.43 407.90 103.15 397.00 92.00
C 389.80 91.59 376.00 94.90 376.01 83.99 C 376.01 73.09 389.81 76.43 397.00 76.00
C 407.88 64.38 384.57 61.81 388.00 50.00 C 391.43 38.19 408.50 47.86 412.00 56.00
C 414.95 55.87 417.03 53.12 420.00 53.00
C 420.41 45.80 417.10 32.01 428.01 32.01 C 438.91 32.01 435.57 45.81 436.00 53.00 Z"/>
</g>
<g fill="#FCA64F" fill-opacity="1.00" stroke="None">
<path d="
M 436.00 53.00 
C 435.57 45.81 438.91 32.01 428.01 32.01 C 417.10 32.01 420.41 45.80 420.00 53.00
C 417.03 53.12 414.95 55.87 412.00 56.00
C 408.50 47.86 391.43 38.19 388.00 50.00 C 384.57 61.81 407.88 64.38 397.00 76.00
C 389.81 76.43 376.01 73.09 376.01 83.99 C 376.00 94.90 389.80 91.59 397.00 92.00
C 407.90 103.15 383.91 107.43 388.08 118.92 C 392.25 130.40 408.49 119.25 412.00 112.00
C 414.98 112.12 417.05 114.87 420.00 115.00
C 420.43 122.19 417.09 135.99 427.99 135.99 C 438.90 135.99 435.59 122.20 436.00 115.00
C 438.97 114.88 441.05 112.13 444.00 112.00
C 448.50 117.57 458.52 129.05 465.75 121.75 C 472.98 114.45 461.65 104.57 456.00 100.00
C 456.12 97.03 458.87 94.95 459.00 92.00
C 466.19 91.57 479.99 94.91 479.99 84.01 C 479.99 73.10 466.20 76.41 459.00 76.00
C 458.88 73.02 456.13 70.95 456.00 68.00
C 464.21 64.46 474.00 47.36 462.00 44.00 C 450.00 40.64 447.77 63.83 436.00 53.00 Z"/>
</g>
<g fill="#56585B" fill-opacity="0.99" stroke="None">
<path d="
M 24.00 212.00 
C 48.79 212.74 41.31 251.53 17.00 243.00
C 29.79 273.13 67.83 280.58 98.00 284.00 C 128.17 287.42 142.05 320.79 167.00 336.00
C 165.18 347.73 155.93 355.26 149.77 364.77 C 143.61 374.28 128.57 378.93 119.07 380.07 C 109.58 381.21 87.79 386.38 92.08 398.92 C 96.37 411.46 115.22 408.14 126.00 408.00 C 136.78 407.86 153.35 402.98 164.32 400.32 C 175.29 397.66 186.83 391.32 197.30 387.30 C 207.78 383.29 214.78 370.99 225.92 375.08 C 237.06 379.16 248.51 384.40 260.93 386.07 C 273.34 387.74 287.73 392.88 301.00 392.00 C 314.27 391.12 322.37 397.44 332.00 406.00
C 317.15 408.10 304.16 405.82 289.07 410.07 C 273.99 414.33 281.15 432.54 296.00 432.00 C 310.85 431.46 328.44 432.09 343.00 432.00 C 357.56 431.91 374.48 432.57 387.33 429.33 C 400.17 426.08 410.94 422.69 421.77 416.77 C 432.60 410.85 440.20 405.05 448.92 396.92 C 457.64 388.78 463.84 380.93 469.70 370.70 C 475.55 360.46 480.15 348.62 482.00 337.00
C 483.98 324.58 483.69 312.76 483.00 300.00
C 479.03 270.74 469.20 242.55 449.25 219.75 C 429.29 196.95 407.27 184.89 378.00 178.00 C 348.73 171.10 306.69 179.79 280.02 190.02 C 253.35 200.26 214.08 214.53 201.00 180.00
C 227.25 176.62 237.49 140.58 217.70 123.30 C 197.90 106.03 161.74 120.29 164.00 148.00
C 111.19 148.67 55.99 168.78 24.00 212.00
M 200.00 132.00 
C 219.68 136.08 212.51 168.91 192.33 163.67 C 172.15 158.43 179.53 127.76 200.00 132.00
M 108.00 180.00 
C 132.76 184.02 125.91 224.90 100.33 219.67 C 74.75 214.44 82.21 175.81 108.00 180.00 Z"/>
</g>
<g fill="#EC8573" fill-opacity="1.00" stroke="None">
<path d="
M 200.00 132.00 
C 179.53 127.76 172.15 158.43 192.33 163.67 C 212.51 168.91 219.68 136.08 200.00 132.00 Z"/>
</g>
<g fill="#414042" fill-opacity="1.00" stroke="None">
<path d="
M 108.00 180.00 
C 82.21 175.81 74.75 214.44 100.33 219.67 C 125.91 224.90 132.76 184.02 108.00 180.00
M 102.00 200.00 
C 106.33 201.86 103.10 210.10 98.33 207.67 C 93.55 205.24 97.28 197.97 102.00 200.00 Z"/>
</g>
<g fill="#DFE0E0" fill-opacity="1.00" stroke="None">
<path d="
M 102.00 200.00 
C 97.28 197.97 93.55 205.24 98.33 207.67 C 103.10 210.10 106.33 201.86 102.00 200.00 Z"/>
</g>
<g fill="#EE8573" fill-opacity="0.97" stroke="None">
<path d="
M 17.00 243.00 
C 41.31 251.53 48.79 212.74 24.00 212.00
C 7.36 211.50 0.52 237.21 17.00 243.00 Z"/>
</g>
<g fill="#EF8673" fill-opacity="0.98" stroke="None">
<path d="
M 482.00 337.00 
C 482.17 346.96 482.99 359.92 481.00 370.00 C 479.01 380.08 478.41 390.95 474.99 399.99 C 471.57 409.03 469.52 417.63 464.25 425.25 C 458.99 432.88 455.04 438.94 447.75 444.75 C 440.46 450.55 434.98 454.53 426.02 458.02 C 417.07 461.52 408.29 464.55 398.00 466.00 C 387.72 467.45 375.11 467.34 364.00 468.00 C 352.89 468.66 339.51 467.69 328.00 468.00 C 316.49 468.31 304.72 467.86 293.00 468.00 C 281.28 468.14 268.83 467.93 257.00 468.00 C 245.17 468.07 232.83 467.94 221.00 468.00 C 209.17 468.06 196.72 467.92 185.00 468.00 C 173.28 468.08 160.42 467.85 149.00 468.00 C 137.58 468.15 124.80 467.67 114.00 468.00 C 103.20 468.33 87.56 467.28 78.00 468.00 C 68.44 468.72 54.63 467.57 52.00 478.00 C 49.37 488.43 64.95 492.09 74.00 492.00 C 83.05 491.91 98.35 492.04 109.00 492.00 C 119.65 491.96 133.63 492.02 145.00 492.00 C 156.37 491.98 169.32 492.01 181.00 492.00 C 192.68 492.00 205.23 492.00 217.00 492.00 C 228.77 492.00 240.19 491.99 252.00 492.00 C 263.81 492.01 276.17 491.97 288.00 492.00 C 299.83 492.03 312.27 491.92 324.00 492.00 C 335.74 492.08 348.54 491.83 360.00 492.00 C 371.46 492.17 384.45 492.07 395.00 491.00 C 405.55 489.93 414.80 488.12 423.98 484.98 C 433.15 481.83 441.13 478.92 448.77 473.77 C 456.41 468.62 462.64 464.69 468.75 457.75 C 474.85 450.80 479.24 444.80 483.70 436.70 C 488.15 428.59 491.19 421.29 494.07 412.07 C 496.96 402.86 499.04 393.09 501.00 383.00 C 502.96 372.91 502.54 360.67 504.00 350.00 C 505.46 339.33 501.80 328.40 498.92 319.08 C 496.05 309.75 486.84 307.44 483.00 300.00
C 483.69 312.76 483.98 324.58 482.00 337.00 Z"/>
</g>
</svg>